<svg width="960" height="280" viewBox="0 0 960 280" fill="none" xmlns="http://www.w3.org/2000/svg">
  <defs>
    <linearGradient id="frame" x1="38" y1="32" x2="222" y2="228" gradientUnits="userSpaceOnUse">
      <stop stop-color="#2DD4BF"/>
      <stop offset="1" stop-color="#FB923C"/>
    </linearGradient>
  </defs>
  <rect x="20" y="20" width="220" height="220" rx="64" fill="#171717"/>
  <rect x="34" y="34" width="192" height="192" rx="54" stroke="url(#frame)" stroke-opacity="0.38" stroke-width="4"/>
  <path d="M171 79H122C93.8335 79 71 101.834 71 130C71 158.166 93.8335 181 122 181H171" stroke="#FFF4E6" stroke-width="28" stroke-linecap="round" stroke-linejoin="round"/>
  <rect x="147" y="82" width="46" height="46" rx="15" fill="#F97316"/>
  <rect x="147" y="134" width="46" height="46" rx="15" fill="#0F766E"/>
  <circle cx="170" cy="105" r="6" fill="#171717"/>
  <circle cx="170" cy="157" r="6" fill="#FFF4E6"/>
  <path d="M108 130H127" stroke="#2DD4BF" stroke-width="9" stroke-linecap="round"/>
  <circle cx="134" cy="130" r="4.5" fill="#2DD4BF"/>
  <text x="282" y="122" fill="#171717" font-family="Space Grotesk, Aptos, Segoe UI, sans-serif" font-size="92" font-weight="700" letter-spacing="-2.5">Codex</text>
  <text x="620" y="122" fill="#0F766E" font-family="Space Grotesk, Aptos, Segoe UI, sans-serif" font-size="92" font-weight="700" letter-spacing="-2.5">Kit</text>
  <text x="286" y="176" fill="#57534E" font-family="IBM Plex Mono, Cascadia Code, monospace" font-size="24" letter-spacing="2.2">OPEN-SOURCE WORK OPERATING KIT</text>
</svg>
